<?xml version="1.0" encoding="utf-8"?>
<!-- Generator: Adobe Illustrator 21.0.2, SVG Export Plug-In . SVG Version: 6.00 Build 0)  -->
<svg version="1.1" id="Layer_1" xmlns="http://www.w3.org/2000/svg" xmlns:xlink="http://www.w3.org/1999/xlink" x="0px" y="0px"
	 viewBox="0 0 769.7 769" style="enable-background:new 0 0 769.7 769;" xml:space="preserve">
<style type="text/css">
	.st0{fill:#006837;stroke:#000000;stroke-miterlimit:10;}
	.st1{fill:#029245;}
	.st2{fill:#FF2222;stroke:#FFFFFF;stroke-width:15;stroke-miterlimit:10;}
</style>
<title>nurse</title>
<g>
	<path class="st0" d="M272.3,454.2c31.6,24.1,70,38.3,111.4,38.3c41.6,0,80-14.2,111.6-38.4c74.2,14.5,162.2,41.6,184.8,90l7.4,77.5
		c51.2-65.3,81.8-147.7,81.8-237.1C769.4,172.1,597.2,0,384.9,0S0.4,172.1,0.4,384.5c0,88.9,30.1,170.7,80.8,235.8l7.3-76.2
		C110.9,495.9,198.3,468.8,272.3,454.2z"/>
	<path class="st1" d="M687.5,621.6l-7.4-77.5c-22.6-48.4-110.6-75.5-184.8-90c-31.6,24.2-70,38.4-111.6,38.4
		c-41.4,0-79.8-14.2-111.4-38.3c-74,14.6-161.4,41.7-183.9,89.9l-7.3,76.2C151.5,710.8,261.4,769,384.9,769
		C507.7,769,617.2,711.4,687.5,621.6z"/>
</g>
<ellipse class="st1" cx="384.9" cy="262.9" rx="193.9" ry="210.9"/>
<polygon class="st2" points="420.9,600.2 420.9,546.8 352.9,546.8 352.9,600.2 299.5,600.2 299.5,668.2 352.9,668.2 352.9,721.6 
	420.9,721.6 420.9,668.2 474.3,668.2 474.3,600.2 "/>
</svg>
