<?xml version="1.0" encoding="utf-8"?>
<!-- Generator: Adobe Illustrator 21.0.2, SVG Export Plug-In . SVG Version: 6.00 Build 0)  -->
<svg version="1.1" id="Layer_1" xmlns="http://www.w3.org/2000/svg" xmlns:xlink="http://www.w3.org/1999/xlink" x="0px" y="0px"
	 viewBox="0 0 768 768" style="enable-background:new 0 0 768 768;" xml:space="preserve">
<style type="text/css">
	.st0{fill:#006837;}
	.st1{fill:#029245;}
</style>
<title>patient</title>
<g>
	<g>
		<path class="st0" d="M272,453.2c31.6,24.1,70,38.3,111.4,38.3c41.6,0,80-14.2,111.6-38.4c74.2,14.5,162.2,41.6,184.8,90l7.4,76.6
			C737.8,554.6,768,472.8,768,384C768,171.9,596.1,0,384,0S0,171.9,0,384c0,88.8,30.2,170.6,80.8,235.6l7.3-76.5
			C110.6,494.9,198,467.8,272,453.2z"/>
	</g>
	<path class="st1" d="M687.2,619.7l-7.4-76.6c-22.6-48.4-110.6-75.5-184.8-90c-31.6,24.2-70,38.4-111.6,38.4
		c-41.4,0-79.8-14.2-111.4-38.3c-74,14.6-161.4,41.7-183.9,89.9l-7.3,76.5C151,709.9,260.7,768,384,768
		C507.2,768,616.9,710,687.2,619.7z"/>
</g>
<ellipse class="st1" cx="384.6" cy="261.9" rx="193.9" ry="210.9"/>
</svg>
